<svg xmlns="http://www.w3.org/2000/svg" xmlns:xlink="http://www.w3.org/1999/xlink" viewBox="0 0 976 493.8181818181818" width="976" height="500"><path d="M 523.000,197.795 C 528.216,194.643 525.182,196.341 527.364,194.886" stroke-width="5.254" stroke="#000000" fill="none" stroke-linecap="round"></path><path d="M 527.364,194.886 C 522.660,197.120 525.671,195.370 517.909,199.250" stroke-width="4.553" stroke="#000000" fill="none" stroke-linecap="round"></path><path d="M 517.909,199.250 C 512.038,201.680 512.114,201.848 506.273,204.341" stroke-width="3.459" stroke="#000000" fill="none" stroke-linecap="round"></path><path d="M 506.273,204.341 C 498.015,208.577 497.856,208.225 489.545,212.341" stroke-width="2.883" stroke="#000000" fill="none" stroke-linecap="round"></path><path d="M 489.545,212.341 C 478.182,216.862 478.378,217.304 467.000,221.795" stroke-width="2.454" stroke="#000000" fill="none" stroke-linecap="round"></path><path d="M 467.000,221.795 C 453.498,227.875 453.455,227.771 440.091,234.159" stroke-width="2.096" stroke="#000000" fill="none" stroke-linecap="round"></path><path d="M 440.091,234.159 C 418.464,243.996 418.588,244.238 397.182,254.523" stroke-width="1.625" stroke="#000000" fill="none" stroke-linecap="round"></path><path d="M 397.182,254.523 C 384.843,261.115 384.645,260.724 372.455,267.614" stroke-width="1.946" stroke="#000000" fill="none" stroke-linecap="round"></path><path d="M 372.455,267.614 C 362.491,272.444 362.661,272.751 352.818,277.795" stroke-width="2.270" stroke="#000000" fill="none" stroke-linecap="round"></path><path d="M 352.818,277.795 C 345.496,282.078 345.400,281.899 338.273,286.523" stroke-width="2.574" stroke="#000000" fill="none" stroke-linecap="round"></path><path d="M 338.273,286.523 C 328.427,289.788 331.314,290.805 324.455,295.250" stroke-width="2.717" stroke="#000000" fill="none" stroke-linecap="round"></path><path d="M 324.455,295.250 C 323.857,300.802 322.609,297.788 326.636,302.523" stroke-width="3.830" stroke="#000000" fill="none" stroke-linecap="round"></path><path d="M 326.636,302.523 C 333.126,304.176 331.494,305.530 339.727,304.705" stroke-width="3.334" stroke="#000000" fill="none" stroke-linecap="round"></path><path d="M 339.727,304.705 C 351.360,305.285 351.308,305.631 363.000,305.432" stroke-width="2.598" stroke="#000000" fill="none" stroke-linecap="round"></path><path d="M 363.000,305.432 C 380.092,305.303 380.088,305.648 397.182,305.432" stroke-width="1.977" stroke="#000000" fill="none" stroke-linecap="round"></path><path d="M 397.182,305.432 C 428.456,305.706 428.455,305.667 459.727,306.159" stroke-width="1.362" stroke="#000000" fill="none" stroke-linecap="round"></path><path d="M 459.727,306.159 C 478.635,306.681 478.638,306.433 497.545,306.886" stroke-width="1.609" stroke="#000000" fill="none" stroke-linecap="round"></path><path d="M 497.545,306.886 C 512.091,306.886 512.089,307.044 526.636,306.886" stroke-width="1.953" stroke="#000000" fill="none" stroke-linecap="round"></path><path d="M 526.636,306.886 C 536.865,307.520 536.818,306.886 547.000,306.886" stroke-width="2.237" stroke="#000000" fill="none" stroke-linecap="round"></path><path d="M 557.909,216.705 C 549.329,220.168 549.182,219.614 540.455,222.523" stroke-width="4.473" stroke="#000000" fill="none" stroke-linecap="round"></path><path d="M 540.455,222.523 C 531.401,224.548 531.511,224.896 522.273,226.159" stroke-width="2.979" stroke="#000000" fill="none" stroke-linecap="round"></path><path d="M 522.273,226.159 C 506.706,229.201 506.674,228.912 491.000,231.250" stroke-width="2.188" stroke="#000000" fill="none" stroke-linecap="round"></path><path d="M 491.000,231.250 C 456.475,235.433 456.524,235.747 421.909,239.250" stroke-width="1.297" stroke="#000000" fill="none" stroke-linecap="round"></path><path d="M 421.909,239.250 C 397.203,242.021 397.202,241.978 372.455,244.341" stroke-width="1.347" stroke="#000000" fill="none" stroke-linecap="round"></path><path d="M 372.455,244.341 C 350.639,246.192 350.657,246.384 328.818,247.977" stroke-width="1.498" stroke="#000000" fill="none" stroke-linecap="round"></path><path d="M 328.818,247.977 C 310.650,249.625 310.639,249.465 292.455,250.886" stroke-width="1.690" stroke="#000000" fill="none" stroke-linecap="round"></path><path d="M 292.455,250.886 C 273.911,252.008 273.923,252.171 255.364,253.068" stroke-width="1.742" stroke="#000000" fill="none" stroke-linecap="round"></path><path d="M 255.364,253.068 C 248.458,253.557 248.456,253.463 241.545,253.795" stroke-width="2.474" stroke="#000000" fill="none" stroke-linecap="round"></path><path d="M 451.727,175.977 C 449.420,181.018 449.545,181.068 447.364,186.159" stroke-width="4.798" stroke="#000000" fill="none" stroke-linecap="round"></path><path d="M 447.364,186.159 C 444.964,191.903 445.056,191.927 443.000,197.795" stroke-width="3.665" stroke="#000000" fill="none" stroke-linecap="round"></path><path d="M 443.000,197.795 C 440.166,207.274 439.873,207.176 437.182,216.705" stroke-width="2.848" stroke="#000000" fill="none" stroke-linecap="round"></path><path d="M 437.182,216.705 C 430.817,235.921 431.075,236.001 424.818,255.250" stroke-width="1.901" stroke="#000000" fill="none" stroke-linecap="round"></path><path d="M 424.818,255.250 C 421.377,267.675 420.999,267.557 417.545,279.977" stroke-width="2.123" stroke="#000000" fill="none" stroke-linecap="round"></path><path d="M 417.545,279.977 C 414.212,289.776 414.468,289.857 411.000,299.614" stroke-width="2.397" stroke="#000000" fill="none" stroke-linecap="round"></path><path d="M 411.000,299.614 C 408.833,307.755 408.394,307.594 405.909,315.614" stroke-width="2.630" stroke="#000000" fill="none" stroke-linecap="round"></path><path d="M 405.909,315.614 C 402.540,323.211 403.015,323.391 399.364,330.886" stroke-width="2.777" stroke="#000000" fill="none" stroke-linecap="round"></path><path d="M 399.364,330.886 C 396.634,336.340 398.176,333.757 397.182,336.705" stroke-width="3.597" stroke="#000000" fill="none" stroke-linecap="round"></path><path d="M 397.182,336.705 C 399.775,334.819 397.725,337.067 401.545,332.341" stroke-width="4.480" stroke="#000000" fill="none" stroke-linecap="round"></path><path d="M 488.091,240.705 C 486.201,245.771 486.273,245.795 484.455,250.886" stroke-width="4.845" stroke="#000000" fill="none" stroke-linecap="round"></path><path d="M 484.455,250.886 C 481.182,260.705 481.110,260.680 477.909,270.523" stroke-width="2.879" stroke="#000000" fill="none" stroke-linecap="round"></path><path d="M 477.909,270.523 C 475.364,278.159 475.364,278.159 472.818,285.795" stroke-width="2.826" stroke="#000000" fill="none" stroke-linecap="round"></path><path d="M 472.818,285.795 C 470.697,292.362 470.636,292.341 468.455,298.886" stroke-width="3.067" stroke="#000000" fill="none" stroke-linecap="round"></path><path d="M 468.455,298.886 C 466.586,303.960 466.697,303.998 464.818,309.068" stroke-width="3.264" stroke="#000000" fill="none" stroke-linecap="round"></path><path d="M 464.818,309.068 C 461.676,316.163 463.314,313.415 461.909,317.795" stroke-width="3.525" stroke="#000000" fill="none" stroke-linecap="round"></path><path d="M 482.273,234.159 C 483.582,236.631 483.364,236.705 484.455,239.250" stroke-width="5.349" stroke="#000000" fill="none" stroke-linecap="round"></path><path d="M 484.455,239.250 C 485.130,242.173 485.400,242.086 485.909,245.068" stroke-width="4.342" stroke="#000000" fill="none" stroke-linecap="round"></path><path d="M 485.909,245.068 C 487.758,251.605 487.675,251.627 489.545,258.159" stroke-width="3.342" stroke="#000000" fill="none" stroke-linecap="round"></path><path d="M 489.545,258.159 C 491.044,263.602 491.031,263.605 492.455,269.068" stroke-width="3.369" stroke="#000000" fill="none" stroke-linecap="round"></path><path d="M 492.455,269.068 C 494.150,274.838 493.953,274.875 495.364,280.705" stroke-width="3.260" stroke="#000000" fill="none" stroke-linecap="round"></path><path d="M 495.364,280.705 C 495.948,285.458 496.332,285.383 496.818,290.159" stroke-width="3.538" stroke="#000000" fill="none" stroke-linecap="round"></path><path d="M 496.818,290.159 C 497.846,295.265 497.766,295.276 499.000,300.341" stroke-width="3.503" stroke="#000000" fill="none" stroke-linecap="round"></path><path d="M 499.000,300.341 C 504.033,294.284 503.000,293.795 507.000,287.250" stroke-width="5.007" stroke="#000000" fill="none" stroke-linecap="round"></path><path d="M 507.000,287.250 C 512.985,270.579 513.851,271.011 518.636,253.795" stroke-width="2.254" stroke="#000000" fill="none" stroke-linecap="round"></path><path d="M 518.636,253.795 C 524.465,234.764 524.985,234.943 531.000,215.977" stroke-width="1.822" stroke="#000000" fill="none" stroke-linecap="round"></path><path d="M 531.000,215.977 C 538.267,192.605 539.011,192.946 547.727,170.159" stroke-width="1.496" stroke="#000000" fill="none" stroke-linecap="round"></path><path d="M 547.727,170.159 C 556.978,148.557 556.812,148.605 568.091,127.977" stroke-width="1.497" stroke="#000000" fill="none" stroke-linecap="round"></path></svg>